<?xml version="1.0" encoding="utf-8"?>
<!-- Generator: Adobe Illustrator 18.1.1, SVG Export Plug-In . SVG Version: 6.00 Build 0)  -->
<!DOCTYPE svg PUBLIC "-//W3C//DTD SVG 1.1//EN" "http://www.w3.org/Graphics/SVG/1.1/DTD/svg11.dtd">
<svg version="1.1" id="layer_1" xmlns="http://www.w3.org/2000/svg" xmlns:xlink="http://www.w3.org/1999/xlink" x="0px"
	 y="0px" viewBox="0 0 1500 234" enable-background="new 0 0 1500 234" xml:space="preserve">
<path fill="#333333" d="M152.5,40.3H45.2v56.9h91.3v40.3H45.2v93.9H0V0h152.5V40.3z"/>
<path fill="#333333" d="M308.5,159.9h-106c0,11.5,3.3,20.6,9.9,27.5c6.6,6.8,15.7,10.2,27.1,10.2c15,0,27.7-5.3,38.4-15.9l25.7,25
	c-17.8,17.8-39.2,26.7-64.4,26.7c-52.2,0-78.3-28.9-78.3-86.8c0-24.9,6-45.2,17.9-60.8c13-17.1,31.6-25.7,55.9-25.7
	c23.4,0,41.7,7.8,54.9,23.4c12.6,14.5,18.9,33.7,18.9,57.5V159.9z M266.9,131c0-6.3-1.3-12.4-3.9-18.2
	c-5.2-11.7-14.6-17.6-28.3-17.6c-13.7,0-23.1,5.8-28.3,17.6c-2.6,5.9-3.9,11.9-3.9,18.2H266.9z"/>
<path fill="#333333" d="M472.4,231.5h-42.3V129.1c0-9.1-2.4-16.5-7.3-22.3c-4.9-5.7-11.8-8.6-20.6-8.6c-18.9,0-28.3,10.3-28.3,30.9
	v102.4h-42.3V62.1H373v15.6C384,66,398.1,60.1,415.2,60.1c18.6,0,32.8,5.8,42.6,17.4c9.8,11.6,14.6,26.8,14.6,45.7V231.5z"/>
<path fill="#333333" d="M643.6,231.5h-42.3V129.1c0-9.1-2.4-16.5-7.3-22.3c-4.9-5.7-11.8-8.6-20.6-8.6c-18.9,0-28.3,10.3-28.3,30.9
	v102.4h-42.3V62.1h41.3v15.6c11.1-11.7,25.1-17.6,42.3-17.6c18.6,0,32.8,5.8,42.6,17.4c9.8,11.6,14.6,26.8,14.6,45.7V231.5z"/>
<path fill="#333333" d="M813.4,159.9h-106c0,11.5,3.3,20.6,9.9,27.5c6.6,6.8,15.7,10.2,27.1,10.2c15,0,27.7-5.3,38.4-15.9l25.7,25
	c-17.8,17.8-39.2,26.7-64.4,26.7c-52.2,0-78.3-28.9-78.3-86.8c0-24.9,6-45.2,17.9-60.8c13-17.1,31.6-25.7,55.9-25.7
	c23.4,0,41.7,7.8,54.9,23.4c12.6,14.5,18.9,33.7,18.9,57.5V159.9z M771.8,131c0-6.3-1.3-12.4-3.9-18.2
	c-5.2-11.7-14.6-17.6-28.3-17.6c-13.7,0-23.1,5.8-28.3,17.6c-2.6,5.9-3.9,11.9-3.9,18.2H771.8z"/>
<path fill="#333333" d="M962.5,210.3c-14.7,15.4-33.4,23.1-55.9,23.1c-25.1,0-44.3-8.3-57.5-25c-12.1-15.4-18.2-36-18.2-61.8
	c0-25.8,6.1-46.3,18.2-61.4c13.2-16.7,32.4-25,57.5-25c22.8,0,41.4,7.6,55.9,22.8l-28.6,28.6c-8.2-8.9-17.3-13.3-27.3-13.3
	c-22.3,0-33.5,16.1-33.5,48.4c0,32.5,11.2,48.8,33.5,48.8c10,0,19.1-4.4,27.3-13.3L962.5,210.3z"/>
<path fill="#E4783A" d="M1173.4,231.5h-150.2V0h45.2v191.1h105V231.5z"/>
<path fill="#E4783A" d="M1332,231.5h-41.3v-14.6c-10.8,10.8-24.7,16.3-41.6,16.3c-17.3,0-31.2-4.6-41.6-13.7
	c-10.4-9.1-15.6-22.2-15.6-39.3c0-16.3,5.7-28.7,17.2-37.4c10.2-7.8,23.7-11.7,40.6-11.7h40v-8.5c0-17.8-10.5-26.7-31.5-26.7
	c-13.7,0-24.5,4.7-32.5,14l-27-26.3c8-9.3,17.2-15.7,27.6-19.2c8.4-2.8,19.6-4.2,33.5-4.2c48.1,0,72.2,19.9,72.2,59.8V231.5z
	 M1289.7,169v-9.1h-33.5c-15.8,0-23.7,6.4-23.7,19.2c0,13,8.1,19.5,24.4,19.5c14.3,0,23.9-3.6,28.9-10.7
	C1288.4,184.2,1289.7,177.9,1289.7,169z"/>
<path fill="#E4783A" d="M1499.9,146.6c0,16.7-0.8,29.7-2.3,39c-5.2,31.9-24,47.8-56.4,47.8c-17.2,0-31.3-6-42.4-17.9v15.9h-40.6V0
	h42.3v77c10.2-11.3,23.8-16.9,41-16.9c31.9,0,50.6,15.9,56.2,47.8C1499.1,116.6,1499.9,129.5,1499.9,146.6z M1457.6,146.6
	c0-15.4-1.2-26.1-3.6-32.2c-4.3-10.8-12.7-16.3-25-16.3c-12.4,0-20.7,5.4-25,16.3c-2.4,6.1-3.6,16.8-3.6,32.2
	c0,15.4,1.2,26.1,3.6,32.2c4.3,11.1,12.7,16.6,25,16.6c12.4,0,20.7-5.5,25-16.6C1456.4,172.7,1457.6,162,1457.6,146.6z"/>
</svg>
